<mxfile host="Electron" modified="2023-09-29T23:28:48.169Z" agent="Mozilla/5.0 (X11; Linux x86_64) AppleWebKit/537.36 (KHTML, like Gecko) draw.io/22.0.0 Chrome/114.0.5735.289 Electron/25.8.3 Safari/537.36" etag="AfqS_9sX8r2S8Qh6RjdJ" version="22.0.0" type="device" pages="2">
  <diagram name="1.0.0" id="e9TI5_K4IV4O8QOR8daj">
    <mxGraphModel dx="1478" dy="1252" grid="1" gridSize="10" guides="1" tooltips="1" connect="1" arrows="1" fold="1" page="0" pageScale="1" pageWidth="850" pageHeight="1100" math="0" shadow="0">
      <root>
        <mxCell id="cn-GWUwfrTkV4uHzCgbF-0" />
        <mxCell id="cn-GWUwfrTkV4uHzCgbF-1" parent="cn-GWUwfrTkV4uHzCgbF-0" />
        <mxCell id="cn-GWUwfrTkV4uHzCgbF-2" value="uniclogs-sdr" style="rounded=0;whiteSpace=wrap;html=1;" vertex="1" parent="cn-GWUwfrTkV4uHzCgbF-1">
          <mxGeometry x="170" y="50" width="320" height="60" as="geometry" />
        </mxCell>
        <mxCell id="cn-GWUwfrTkV4uHzCgbF-3" value="uniclogs-yamcs" style="rounded=0;whiteSpace=wrap;html=1;" vertex="1" parent="cn-GWUwfrTkV4uHzCgbF-1">
          <mxGeometry x="210" y="180" width="160" height="60" as="geometry" />
        </mxCell>
        <mxCell id="cn-GWUwfrTkV4uHzCgbF-4" value="" style="edgeStyle=orthogonalEdgeStyle;rounded=0;orthogonalLoop=1;jettySize=auto;html=1;dashed=1;exitX=0.5;exitY=0;exitDx=0;exitDy=0;startArrow=classic;startFill=1;fillColor=#f8cecc;strokeColor=#b85450;" edge="1" parent="cn-GWUwfrTkV4uHzCgbF-1" source="cn-GWUwfrTkV4uHzCgbF-6" target="cn-GWUwfrTkV4uHzCgbF-3">
          <mxGeometry relative="1" as="geometry">
            <Array as="points">
              <mxPoint x="375" y="280" />
              <mxPoint x="290" y="280" />
            </Array>
          </mxGeometry>
        </mxCell>
        <mxCell id="cn-GWUwfrTkV4uHzCgbF-6" value="cmd-shell" style="rounded=0;whiteSpace=wrap;html=1;" vertex="1" parent="cn-GWUwfrTkV4uHzCgbF-1">
          <mxGeometry x="300" y="310" width="150" height="60" as="geometry" />
        </mxCell>
        <mxCell id="cn-GWUwfrTkV4uHzCgbF-7" value="" style="endArrow=classic;html=1;rounded=0;exitX=0.75;exitY=1;exitDx=0;exitDy=0;entryX=0.736;entryY=-0.006;entryDx=0;entryDy=0;fillColor=#dae8fc;strokeColor=#6c8ebf;entryPerimeter=0;" edge="1" parent="cn-GWUwfrTkV4uHzCgbF-1" source="cn-GWUwfrTkV4uHzCgbF-2" target="cn-GWUwfrTkV4uHzCgbF-6">
          <mxGeometry width="50" height="50" relative="1" as="geometry">
            <mxPoint x="400" y="460" as="sourcePoint" />
            <mxPoint x="450" y="390" as="targetPoint" />
          </mxGeometry>
        </mxCell>
        <mxCell id="cn-GWUwfrTkV4uHzCgbF-8" value="EDL TC Res.&lt;br&gt;[10016]" style="edgeLabel;html=1;align=center;verticalAlign=middle;resizable=0;points=[];" vertex="1" connectable="0" parent="cn-GWUwfrTkV4uHzCgbF-7">
          <mxGeometry x="0.1109" y="2" relative="1" as="geometry">
            <mxPoint x="32" y="-8" as="offset" />
          </mxGeometry>
        </mxCell>
        <mxCell id="cn-GWUwfrTkV4uHzCgbF-9" value="" style="endArrow=classic;html=1;rounded=0;exitX=0.813;exitY=0;exitDx=0;exitDy=0;entryX=0.531;entryY=1.004;entryDx=0;entryDy=0;fillColor=#dae8fc;strokeColor=#6c8ebf;entryPerimeter=0;exitPerimeter=0;" edge="1" parent="cn-GWUwfrTkV4uHzCgbF-1" source="cn-GWUwfrTkV4uHzCgbF-3" target="cn-GWUwfrTkV4uHzCgbF-2">
          <mxGeometry width="50" height="50" relative="1" as="geometry">
            <mxPoint x="400" y="460" as="sourcePoint" />
            <mxPoint x="450" y="410" as="targetPoint" />
          </mxGeometry>
        </mxCell>
        <mxCell id="cn-GWUwfrTkV4uHzCgbF-10" value="EDL TC Req.&lt;br&gt;[10025]" style="edgeLabel;html=1;align=center;verticalAlign=middle;resizable=0;points=[];" vertex="1" connectable="0" parent="cn-GWUwfrTkV4uHzCgbF-9">
          <mxGeometry x="0.4462" y="-2" relative="1" as="geometry">
            <mxPoint x="-36" y="14" as="offset" />
          </mxGeometry>
        </mxCell>
        <mxCell id="cn-GWUwfrTkV4uHzCgbF-11" value="" style="endArrow=classic;html=1;rounded=0;exitX=0.218;exitY=0.999;exitDx=0;exitDy=0;entryX=0.187;entryY=-0.001;entryDx=0;entryDy=0;fillColor=#dae8fc;strokeColor=#6c8ebf;entryPerimeter=0;exitPerimeter=0;" edge="1" parent="cn-GWUwfrTkV4uHzCgbF-1" source="cn-GWUwfrTkV4uHzCgbF-2" target="cn-GWUwfrTkV4uHzCgbF-3">
          <mxGeometry width="50" height="50" relative="1" as="geometry">
            <mxPoint x="400" y="460" as="sourcePoint" />
            <mxPoint x="450" y="410" as="targetPoint" />
          </mxGeometry>
        </mxCell>
        <mxCell id="cn-GWUwfrTkV4uHzCgbF-12" value="UniClOGS TM&lt;br&gt;[10015]" style="edgeLabel;html=1;align=center;verticalAlign=middle;resizable=0;points=[];" vertex="1" connectable="0" parent="cn-GWUwfrTkV4uHzCgbF-11">
          <mxGeometry x="-0.3976" y="2" relative="1" as="geometry">
            <mxPoint x="-39" y="12" as="offset" />
          </mxGeometry>
        </mxCell>
        <mxCell id="cn-GWUwfrTkV4uHzCgbF-13" value="" style="edgeStyle=orthogonalEdgeStyle;rounded=0;orthogonalLoop=1;jettySize=auto;html=1;dashed=1;entryX=0.5;entryY=1;entryDx=0;entryDy=0;startArrow=classic;startFill=1;exitX=0.5;exitY=0;exitDx=0;exitDy=0;fillColor=#f8cecc;strokeColor=#b85450;" edge="1" parent="cn-GWUwfrTkV4uHzCgbF-1" source="cn-GWUwfrTkV4uHzCgbF-15" target="cn-GWUwfrTkV4uHzCgbF-3">
          <mxGeometry relative="1" as="geometry">
            <Array as="points">
              <mxPoint x="210" y="280" />
              <mxPoint x="290" y="280" />
            </Array>
          </mxGeometry>
        </mxCell>
        <mxCell id="cn-GWUwfrTkV4uHzCgbF-14" value="Yamcs API&lt;br&gt;[8090]" style="edgeLabel;html=1;align=center;verticalAlign=middle;resizable=0;points=[];" vertex="1" connectable="0" parent="cn-GWUwfrTkV4uHzCgbF-13">
          <mxGeometry x="0.6338" relative="1" as="geometry">
            <mxPoint x="28" y="-3" as="offset" />
          </mxGeometry>
        </mxCell>
        <mxCell id="cn-GWUwfrTkV4uHzCgbF-15" value="grafana" style="rounded=0;whiteSpace=wrap;html=1;" vertex="1" parent="cn-GWUwfrTkV4uHzCgbF-1">
          <mxGeometry x="150" y="310" width="120" height="60" as="geometry" />
        </mxCell>
        <mxCell id="cn-GWUwfrTkV4uHzCgbF-16" value="" style="group" vertex="1" connectable="0" parent="cn-GWUwfrTkV4uHzCgbF-1">
          <mxGeometry x="70" y="50" width="80" height="70" as="geometry" />
        </mxCell>
        <mxCell id="cn-GWUwfrTkV4uHzCgbF-17" value="Key:" style="group;fillColor=#f5f5f5;fontColor=#333333;strokeColor=#666666;container=0;" vertex="1" connectable="0" parent="cn-GWUwfrTkV4uHzCgbF-16">
          <mxGeometry width="80" height="70" as="geometry" />
        </mxCell>
        <mxCell id="cn-GWUwfrTkV4uHzCgbF-18" value="" style="endArrow=classic;html=1;rounded=0;fillColor=#dae8fc;strokeColor=#6c8ebf;" edge="1" parent="cn-GWUwfrTkV4uHzCgbF-16">
          <mxGeometry width="50" height="50" relative="1" as="geometry">
            <mxPoint x="30" y="30" as="sourcePoint" />
            <mxPoint x="70" y="30" as="targetPoint" />
          </mxGeometry>
        </mxCell>
        <mxCell id="cn-GWUwfrTkV4uHzCgbF-19" value="UDP" style="edgeLabel;html=1;align=center;verticalAlign=middle;resizable=0;points=[];fontColor=#7EA6E0;" vertex="1" connectable="0" parent="cn-GWUwfrTkV4uHzCgbF-18">
          <mxGeometry x="-0.45" relative="1" as="geometry">
            <mxPoint x="-21" as="offset" />
          </mxGeometry>
        </mxCell>
        <mxCell id="cn-GWUwfrTkV4uHzCgbF-20" value="" style="endArrow=classic;html=1;rounded=0;fillColor=#f8cecc;strokeColor=#b85450;" edge="1" parent="cn-GWUwfrTkV4uHzCgbF-16">
          <mxGeometry width="50" height="50" relative="1" as="geometry">
            <mxPoint x="30" y="49.83" as="sourcePoint" />
            <mxPoint x="70" y="49.83" as="targetPoint" />
          </mxGeometry>
        </mxCell>
        <mxCell id="cn-GWUwfrTkV4uHzCgbF-21" value="TCP" style="edgeLabel;html=1;align=center;verticalAlign=middle;resizable=0;points=[];fontColor=#EA6B66;" vertex="1" connectable="0" parent="cn-GWUwfrTkV4uHzCgbF-20">
          <mxGeometry x="-0.45" relative="1" as="geometry">
            <mxPoint x="-21" as="offset" />
          </mxGeometry>
        </mxCell>
        <mxCell id="cn-GWUwfrTkV4uHzCgbF-22" value="Snapshot ICD:" style="text;strokeColor=none;fillColor=none;html=1;fontSize=24;fontStyle=1;verticalAlign=middle;align=left;fontColor=#000000;" vertex="1" parent="cn-GWUwfrTkV4uHzCgbF-1">
          <mxGeometry x="70" y="-20" width="170" height="40" as="geometry" />
        </mxCell>
        <mxCell id="cn-GWUwfrTkV4uHzCgbF-23" value="v0.1.0-SNAPSHOT" style="text;html=1;strokeColor=none;fillColor=none;align=left;verticalAlign=middle;whiteSpace=wrap;rounded=0;fontColor=#000000;" vertex="1" parent="cn-GWUwfrTkV4uHzCgbF-1">
          <mxGeometry x="70" y="10" width="120" height="20" as="geometry" />
        </mxCell>
        <mxCell id="cn-GWUwfrTkV4uHzCgbF-24" value="uniclogs-sdr" style="rounded=0;whiteSpace=wrap;html=1;" vertex="1" parent="cn-GWUwfrTkV4uHzCgbF-1">
          <mxGeometry x="180" y="470" width="320" height="60" as="geometry" />
        </mxCell>
        <mxCell id="cn-GWUwfrTkV4uHzCgbF-25" value="uniclogs-yamcs" style="rounded=0;whiteSpace=wrap;html=1;" vertex="1" parent="cn-GWUwfrTkV4uHzCgbF-1">
          <mxGeometry x="220" y="600" width="160" height="60" as="geometry" />
        </mxCell>
        <mxCell id="cn-GWUwfrTkV4uHzCgbF-26" value="" style="endArrow=classic;html=1;rounded=0;exitX=0.813;exitY=1.002;exitDx=0;exitDy=0;entryX=0.813;entryY=-0.007;entryDx=0;entryDy=0;fillColor=#dae8fc;strokeColor=#6c8ebf;entryPerimeter=0;exitPerimeter=0;" edge="1" parent="cn-GWUwfrTkV4uHzCgbF-1" source="cn-GWUwfrTkV4uHzCgbF-43" target="cn-GWUwfrTkV4uHzCgbF-44">
          <mxGeometry width="50" height="50" relative="1" as="geometry">
            <mxPoint x="410" y="880" as="sourcePoint" />
            <mxPoint x="460" y="810" as="targetPoint" />
          </mxGeometry>
        </mxCell>
        <mxCell id="cn-GWUwfrTkV4uHzCgbF-27" value="EDL TC Res.&lt;br&gt;[10016]" style="edgeLabel;html=1;align=center;verticalAlign=middle;resizable=0;points=[];" vertex="1" connectable="0" parent="cn-GWUwfrTkV4uHzCgbF-26">
          <mxGeometry x="0.1109" y="2" relative="1" as="geometry">
            <mxPoint x="-36" y="-6" as="offset" />
          </mxGeometry>
        </mxCell>
        <mxCell id="cn-GWUwfrTkV4uHzCgbF-28" value="" style="endArrow=classic;html=1;rounded=0;exitX=0.75;exitY=0;exitDx=0;exitDy=0;entryX=0.5;entryY=1;entryDx=0;entryDy=0;fillColor=#dae8fc;strokeColor=#6c8ebf;" edge="1" parent="cn-GWUwfrTkV4uHzCgbF-1" source="cn-GWUwfrTkV4uHzCgbF-25" target="cn-GWUwfrTkV4uHzCgbF-24">
          <mxGeometry width="50" height="50" relative="1" as="geometry">
            <mxPoint x="410" y="880" as="sourcePoint" />
            <mxPoint x="460" y="830" as="targetPoint" />
          </mxGeometry>
        </mxCell>
        <mxCell id="cn-GWUwfrTkV4uHzCgbF-29" value="EDL TC Req.&lt;br&gt;[10025]" style="edgeLabel;html=1;align=center;verticalAlign=middle;resizable=0;points=[];" vertex="1" connectable="0" parent="cn-GWUwfrTkV4uHzCgbF-28">
          <mxGeometry x="0.4462" y="-2" relative="1" as="geometry">
            <mxPoint x="-36" y="14" as="offset" />
          </mxGeometry>
        </mxCell>
        <mxCell id="cn-GWUwfrTkV4uHzCgbF-30" value="" style="endArrow=classic;html=1;rounded=0;exitX=0.188;exitY=1.015;exitDx=0;exitDy=0;entryX=0.188;entryY=-0.002;entryDx=0;entryDy=0;fillColor=#dae8fc;strokeColor=#6c8ebf;exitPerimeter=0;entryPerimeter=0;" edge="1" parent="cn-GWUwfrTkV4uHzCgbF-1" source="cn-GWUwfrTkV4uHzCgbF-43" target="cn-GWUwfrTkV4uHzCgbF-44">
          <mxGeometry width="50" height="50" relative="1" as="geometry">
            <mxPoint x="410" y="880" as="sourcePoint" />
            <mxPoint x="460" y="830" as="targetPoint" />
          </mxGeometry>
        </mxCell>
        <mxCell id="cn-GWUwfrTkV4uHzCgbF-31" value="UniClOGS TM&lt;br&gt;[10015]" style="edgeLabel;html=1;align=center;verticalAlign=middle;resizable=0;points=[];" vertex="1" connectable="0" parent="cn-GWUwfrTkV4uHzCgbF-30">
          <mxGeometry x="-0.3976" y="2" relative="1" as="geometry">
            <mxPoint x="-40" y="11" as="offset" />
          </mxGeometry>
        </mxCell>
        <mxCell id="cn-GWUwfrTkV4uHzCgbF-32" value="" style="edgeStyle=orthogonalEdgeStyle;rounded=0;orthogonalLoop=1;jettySize=auto;html=1;dashed=1;entryX=0.75;entryY=1;entryDx=0;entryDy=0;startArrow=classic;startFill=1;exitX=0.5;exitY=0;exitDx=0;exitDy=0;fillColor=#f8cecc;strokeColor=#b85450;" edge="1" parent="cn-GWUwfrTkV4uHzCgbF-1" source="cn-GWUwfrTkV4uHzCgbF-34" target="cn-GWUwfrTkV4uHzCgbF-44">
          <mxGeometry relative="1" as="geometry" />
        </mxCell>
        <mxCell id="cn-GWUwfrTkV4uHzCgbF-33" value="Yamcs API&lt;br&gt;[8090]" style="edgeLabel;html=1;align=center;verticalAlign=middle;resizable=0;points=[];" vertex="1" connectable="0" parent="cn-GWUwfrTkV4uHzCgbF-32">
          <mxGeometry x="-0.086" relative="1" as="geometry">
            <mxPoint x="-40" y="-3" as="offset" />
          </mxGeometry>
        </mxCell>
        <mxCell id="cn-GWUwfrTkV4uHzCgbF-34" value="grafana" style="rounded=0;whiteSpace=wrap;html=1;" vertex="1" parent="cn-GWUwfrTkV4uHzCgbF-1">
          <mxGeometry x="360" y="720" width="120" height="60" as="geometry" />
        </mxCell>
        <mxCell id="cn-GWUwfrTkV4uHzCgbF-35" value="" style="group" vertex="1" connectable="0" parent="cn-GWUwfrTkV4uHzCgbF-1">
          <mxGeometry x="80" y="470" width="80" height="70" as="geometry" />
        </mxCell>
        <mxCell id="cn-GWUwfrTkV4uHzCgbF-36" value="Key:" style="group;fillColor=#f5f5f5;fontColor=#333333;strokeColor=#666666;container=0;" vertex="1" connectable="0" parent="cn-GWUwfrTkV4uHzCgbF-35">
          <mxGeometry width="80" height="70" as="geometry" />
        </mxCell>
        <mxCell id="cn-GWUwfrTkV4uHzCgbF-37" value="" style="endArrow=classic;html=1;rounded=0;fillColor=#dae8fc;strokeColor=#6c8ebf;" edge="1" parent="cn-GWUwfrTkV4uHzCgbF-35">
          <mxGeometry width="50" height="50" relative="1" as="geometry">
            <mxPoint x="30" y="30" as="sourcePoint" />
            <mxPoint x="70" y="30" as="targetPoint" />
          </mxGeometry>
        </mxCell>
        <mxCell id="cn-GWUwfrTkV4uHzCgbF-38" value="UDP" style="edgeLabel;html=1;align=center;verticalAlign=middle;resizable=0;points=[];fontColor=#7EA6E0;" vertex="1" connectable="0" parent="cn-GWUwfrTkV4uHzCgbF-37">
          <mxGeometry x="-0.45" relative="1" as="geometry">
            <mxPoint x="-21" as="offset" />
          </mxGeometry>
        </mxCell>
        <mxCell id="cn-GWUwfrTkV4uHzCgbF-39" value="" style="endArrow=classic;html=1;rounded=0;fillColor=#f8cecc;strokeColor=#b85450;" edge="1" parent="cn-GWUwfrTkV4uHzCgbF-35">
          <mxGeometry width="50" height="50" relative="1" as="geometry">
            <mxPoint x="30" y="49.83" as="sourcePoint" />
            <mxPoint x="70" y="49.83" as="targetPoint" />
          </mxGeometry>
        </mxCell>
        <mxCell id="cn-GWUwfrTkV4uHzCgbF-40" value="TCP" style="edgeLabel;html=1;align=center;verticalAlign=middle;resizable=0;points=[];fontColor=#EA6B66;" vertex="1" connectable="0" parent="cn-GWUwfrTkV4uHzCgbF-39">
          <mxGeometry x="-0.45" relative="1" as="geometry">
            <mxPoint x="-21" as="offset" />
          </mxGeometry>
        </mxCell>
        <mxCell id="cn-GWUwfrTkV4uHzCgbF-41" value="RC-Candidate ICD:" style="text;strokeColor=none;fillColor=none;html=1;fontSize=24;fontStyle=1;verticalAlign=middle;align=left;fontColor=#000000;" vertex="1" parent="cn-GWUwfrTkV4uHzCgbF-1">
          <mxGeometry x="80" y="400" width="220" height="40" as="geometry" />
        </mxCell>
        <mxCell id="cn-GWUwfrTkV4uHzCgbF-42" value="v1.0.0" style="text;html=1;strokeColor=none;fillColor=none;align=left;verticalAlign=middle;whiteSpace=wrap;rounded=0;fontColor=#000000;" vertex="1" parent="cn-GWUwfrTkV4uHzCgbF-1">
          <mxGeometry x="80" y="430" width="120" height="20" as="geometry" />
        </mxCell>
        <mxCell id="cn-GWUwfrTkV4uHzCgbF-43" value="uniclogs-sdr" style="rounded=0;whiteSpace=wrap;html=1;" vertex="1" parent="cn-GWUwfrTkV4uHzCgbF-1">
          <mxGeometry x="180" y="470" width="320" height="60" as="geometry" />
        </mxCell>
        <mxCell id="cn-GWUwfrTkV4uHzCgbF-44" value="uniclogs-yamcs" style="rounded=0;whiteSpace=wrap;html=1;" vertex="1" parent="cn-GWUwfrTkV4uHzCgbF-1">
          <mxGeometry x="180" y="600" width="320" height="60" as="geometry" />
        </mxCell>
        <mxCell id="cn-GWUwfrTkV4uHzCgbF-45" value="SatNOGS API" style="ellipse;shape=cloud;whiteSpace=wrap;html=1;fontColor=#000000;" vertex="1" parent="cn-GWUwfrTkV4uHzCgbF-1">
          <mxGeometry x="200" y="710" width="120" height="80" as="geometry" />
        </mxCell>
        <mxCell id="cn-GWUwfrTkV4uHzCgbF-46" value="" style="endArrow=classic;html=1;rounded=0;fontColor=#000000;entryX=0.25;entryY=1;entryDx=0;entryDy=0;exitX=0.507;exitY=0.097;exitDx=0;exitDy=0;exitPerimeter=0;dashed=1;fillColor=#f8cecc;strokeColor=#b85450;" edge="1" parent="cn-GWUwfrTkV4uHzCgbF-1" source="cn-GWUwfrTkV4uHzCgbF-45" target="cn-GWUwfrTkV4uHzCgbF-44">
          <mxGeometry width="50" height="50" relative="1" as="geometry">
            <mxPoint x="10" y="620" as="sourcePoint" />
            <mxPoint x="210" y="630" as="targetPoint" />
          </mxGeometry>
        </mxCell>
        <mxCell id="cn-GWUwfrTkV4uHzCgbF-47" value="SatNOGS TM&lt;br&gt;[10017]" style="edgeLabel;html=1;align=center;verticalAlign=middle;resizable=0;points=[];" vertex="1" connectable="0" parent="cn-GWUwfrTkV4uHzCgbF-46">
          <mxGeometry x="-0.4687" relative="1" as="geometry">
            <mxPoint x="-41" y="-12" as="offset" />
          </mxGeometry>
        </mxCell>
      </root>
    </mxGraphModel>
  </diagram>
  <diagram id="FkvmvaKM8GW2iYJLOqM9" name="0.1.0-SNAPSHOT">
    <mxGraphModel dx="1052" dy="1031" grid="1" gridSize="10" guides="1" tooltips="1" connect="1" arrows="1" fold="1" page="0" pageScale="1" pageWidth="850" pageHeight="1100" math="0" shadow="0">
      <root>
        <mxCell id="0" />
        <mxCell id="1" parent="0" />
        <mxCell id="pMuraK3EphatfSf_acge-1" value="uniclogs-sdr" style="rounded=0;whiteSpace=wrap;html=1;" parent="1" vertex="1">
          <mxGeometry x="170" y="50" width="320" height="60" as="geometry" />
        </mxCell>
        <mxCell id="pMuraK3EphatfSf_acge-2" value="uniclogs-yamcs" style="rounded=0;whiteSpace=wrap;html=1;" parent="1" vertex="1">
          <mxGeometry x="210" y="180" width="160" height="60" as="geometry" />
        </mxCell>
        <mxCell id="pMuraK3EphatfSf_acge-15" value="" style="edgeStyle=orthogonalEdgeStyle;rounded=0;orthogonalLoop=1;jettySize=auto;html=1;dashed=1;exitX=0.5;exitY=0;exitDx=0;exitDy=0;startArrow=classic;startFill=1;fillColor=#f8cecc;strokeColor=#b85450;" parent="1" source="pMuraK3EphatfSf_acge-3" target="pMuraK3EphatfSf_acge-2" edge="1">
          <mxGeometry relative="1" as="geometry">
            <Array as="points">
              <mxPoint x="375" y="280" />
              <mxPoint x="290" y="280" />
            </Array>
          </mxGeometry>
        </mxCell>
        <mxCell id="Nqf8Z1u_RFnQssg9x7je-1" style="edgeStyle=orthogonalEdgeStyle;rounded=0;orthogonalLoop=1;jettySize=auto;html=1;" edge="1" parent="1" source="pMuraK3EphatfSf_acge-3" target="Lsz9uFXEBw233Lw_fpnC-30">
          <mxGeometry relative="1" as="geometry" />
        </mxCell>
        <mxCell id="pMuraK3EphatfSf_acge-3" value="cmd-shell" style="rounded=0;whiteSpace=wrap;html=1;" parent="1" vertex="1">
          <mxGeometry x="300" y="310" width="150" height="60" as="geometry" />
        </mxCell>
        <mxCell id="pMuraK3EphatfSf_acge-6" value="" style="endArrow=classic;html=1;rounded=0;exitX=0.75;exitY=1;exitDx=0;exitDy=0;entryX=0.736;entryY=-0.006;entryDx=0;entryDy=0;fillColor=#dae8fc;strokeColor=#6c8ebf;entryPerimeter=0;" parent="1" source="pMuraK3EphatfSf_acge-1" target="pMuraK3EphatfSf_acge-3" edge="1">
          <mxGeometry width="50" height="50" relative="1" as="geometry">
            <mxPoint x="400" y="460" as="sourcePoint" />
            <mxPoint x="450" y="390" as="targetPoint" />
          </mxGeometry>
        </mxCell>
        <mxCell id="pMuraK3EphatfSf_acge-9" value="EDL TC Res.&lt;br&gt;[10016]" style="edgeLabel;html=1;align=center;verticalAlign=middle;resizable=0;points=[];" parent="pMuraK3EphatfSf_acge-6" vertex="1" connectable="0">
          <mxGeometry x="0.1109" y="2" relative="1" as="geometry">
            <mxPoint x="32" y="-8" as="offset" />
          </mxGeometry>
        </mxCell>
        <mxCell id="pMuraK3EphatfSf_acge-7" value="" style="endArrow=classic;html=1;rounded=0;exitX=0.813;exitY=0;exitDx=0;exitDy=0;entryX=0.531;entryY=1.004;entryDx=0;entryDy=0;fillColor=#dae8fc;strokeColor=#6c8ebf;entryPerimeter=0;exitPerimeter=0;" parent="1" source="pMuraK3EphatfSf_acge-2" target="pMuraK3EphatfSf_acge-1" edge="1">
          <mxGeometry width="50" height="50" relative="1" as="geometry">
            <mxPoint x="400" y="460" as="sourcePoint" />
            <mxPoint x="450" y="410" as="targetPoint" />
          </mxGeometry>
        </mxCell>
        <mxCell id="pMuraK3EphatfSf_acge-10" value="EDL TC Req.&lt;br&gt;[10025]" style="edgeLabel;html=1;align=center;verticalAlign=middle;resizable=0;points=[];" parent="pMuraK3EphatfSf_acge-7" vertex="1" connectable="0">
          <mxGeometry x="0.4462" y="-2" relative="1" as="geometry">
            <mxPoint x="-36" y="14" as="offset" />
          </mxGeometry>
        </mxCell>
        <mxCell id="pMuraK3EphatfSf_acge-8" value="" style="endArrow=classic;html=1;rounded=0;exitX=0.218;exitY=0.999;exitDx=0;exitDy=0;entryX=0.187;entryY=-0.001;entryDx=0;entryDy=0;fillColor=#dae8fc;strokeColor=#6c8ebf;entryPerimeter=0;exitPerimeter=0;" parent="1" source="pMuraK3EphatfSf_acge-1" target="pMuraK3EphatfSf_acge-2" edge="1">
          <mxGeometry width="50" height="50" relative="1" as="geometry">
            <mxPoint x="400" y="460" as="sourcePoint" />
            <mxPoint x="450" y="410" as="targetPoint" />
          </mxGeometry>
        </mxCell>
        <mxCell id="pMuraK3EphatfSf_acge-11" value="UniClOGS TM&lt;br&gt;[10015]" style="edgeLabel;html=1;align=center;verticalAlign=middle;resizable=0;points=[];" parent="pMuraK3EphatfSf_acge-8" vertex="1" connectable="0">
          <mxGeometry x="-0.3976" y="2" relative="1" as="geometry">
            <mxPoint x="-39" y="12" as="offset" />
          </mxGeometry>
        </mxCell>
        <mxCell id="pMuraK3EphatfSf_acge-14" value="" style="edgeStyle=orthogonalEdgeStyle;rounded=0;orthogonalLoop=1;jettySize=auto;html=1;dashed=1;entryX=0.5;entryY=1;entryDx=0;entryDy=0;startArrow=classic;startFill=1;exitX=0.5;exitY=0;exitDx=0;exitDy=0;fillColor=#f8cecc;strokeColor=#b85450;" parent="1" source="pMuraK3EphatfSf_acge-13" target="pMuraK3EphatfSf_acge-2" edge="1">
          <mxGeometry relative="1" as="geometry">
            <Array as="points">
              <mxPoint x="210" y="280" />
              <mxPoint x="290" y="280" />
            </Array>
          </mxGeometry>
        </mxCell>
        <mxCell id="pMuraK3EphatfSf_acge-16" value="Yamcs API&lt;br&gt;[8090]" style="edgeLabel;html=1;align=center;verticalAlign=middle;resizable=0;points=[];" parent="pMuraK3EphatfSf_acge-14" vertex="1" connectable="0">
          <mxGeometry x="0.6338" relative="1" as="geometry">
            <mxPoint x="28" y="-3" as="offset" />
          </mxGeometry>
        </mxCell>
        <mxCell id="pMuraK3EphatfSf_acge-13" value="grafana" style="rounded=0;whiteSpace=wrap;html=1;" parent="1" vertex="1">
          <mxGeometry x="150" y="310" width="120" height="60" as="geometry" />
        </mxCell>
        <mxCell id="Lsz9uFXEBw233Lw_fpnC-6" value="" style="group" parent="1" vertex="1" connectable="0">
          <mxGeometry x="70" y="50" width="80" height="70" as="geometry" />
        </mxCell>
        <mxCell id="Lsz9uFXEBw233Lw_fpnC-5" value="Key:" style="group;fillColor=#f5f5f5;fontColor=#333333;strokeColor=#666666;container=0;" parent="Lsz9uFXEBw233Lw_fpnC-6" vertex="1" connectable="0">
          <mxGeometry width="80" height="70" as="geometry" />
        </mxCell>
        <mxCell id="Lsz9uFXEBw233Lw_fpnC-1" value="" style="endArrow=classic;html=1;rounded=0;fillColor=#dae8fc;strokeColor=#6c8ebf;" parent="Lsz9uFXEBw233Lw_fpnC-6" edge="1">
          <mxGeometry width="50" height="50" relative="1" as="geometry">
            <mxPoint x="30" y="30" as="sourcePoint" />
            <mxPoint x="70" y="30" as="targetPoint" />
          </mxGeometry>
        </mxCell>
        <mxCell id="Lsz9uFXEBw233Lw_fpnC-2" value="UDP" style="edgeLabel;html=1;align=center;verticalAlign=middle;resizable=0;points=[];fontColor=#7EA6E0;" parent="Lsz9uFXEBw233Lw_fpnC-1" vertex="1" connectable="0">
          <mxGeometry x="-0.45" relative="1" as="geometry">
            <mxPoint x="-21" as="offset" />
          </mxGeometry>
        </mxCell>
        <mxCell id="Lsz9uFXEBw233Lw_fpnC-3" value="" style="endArrow=classic;html=1;rounded=0;fillColor=#f8cecc;strokeColor=#b85450;" parent="Lsz9uFXEBw233Lw_fpnC-6" edge="1">
          <mxGeometry width="50" height="50" relative="1" as="geometry">
            <mxPoint x="30" y="49.83" as="sourcePoint" />
            <mxPoint x="70" y="49.83" as="targetPoint" />
          </mxGeometry>
        </mxCell>
        <mxCell id="Lsz9uFXEBw233Lw_fpnC-4" value="TCP" style="edgeLabel;html=1;align=center;verticalAlign=middle;resizable=0;points=[];fontColor=#EA6B66;" parent="Lsz9uFXEBw233Lw_fpnC-3" vertex="1" connectable="0">
          <mxGeometry x="-0.45" relative="1" as="geometry">
            <mxPoint x="-21" as="offset" />
          </mxGeometry>
        </mxCell>
        <mxCell id="Lsz9uFXEBw233Lw_fpnC-7" value="Snapshot ICD:" style="text;strokeColor=none;fillColor=none;html=1;fontSize=24;fontStyle=1;verticalAlign=middle;align=left;fontColor=#000000;" parent="1" vertex="1">
          <mxGeometry x="70" y="-20" width="170" height="40" as="geometry" />
        </mxCell>
        <mxCell id="Lsz9uFXEBw233Lw_fpnC-8" value="v0.1.0-SNAPSHOT" style="text;html=1;strokeColor=none;fillColor=none;align=left;verticalAlign=middle;whiteSpace=wrap;rounded=0;fontColor=#000000;" parent="1" vertex="1">
          <mxGeometry x="70" y="10" width="120" height="20" as="geometry" />
        </mxCell>
        <mxCell id="Lsz9uFXEBw233Lw_fpnC-9" value="uniclogs-sdr" style="rounded=0;whiteSpace=wrap;html=1;" parent="1" vertex="1">
          <mxGeometry x="180" y="470" width="320" height="60" as="geometry" />
        </mxCell>
        <mxCell id="Lsz9uFXEBw233Lw_fpnC-10" value="uniclogs-yamcs" style="rounded=0;whiteSpace=wrap;html=1;" parent="1" vertex="1">
          <mxGeometry x="220" y="600" width="160" height="60" as="geometry" />
        </mxCell>
        <mxCell id="Lsz9uFXEBw233Lw_fpnC-13" value="" style="endArrow=classic;html=1;rounded=0;exitX=0.813;exitY=1.002;exitDx=0;exitDy=0;entryX=0.813;entryY=-0.007;entryDx=0;entryDy=0;fillColor=#dae8fc;strokeColor=#6c8ebf;entryPerimeter=0;exitPerimeter=0;" parent="1" source="Lsz9uFXEBw233Lw_fpnC-30" target="Lsz9uFXEBw233Lw_fpnC-31" edge="1">
          <mxGeometry width="50" height="50" relative="1" as="geometry">
            <mxPoint x="410" y="880" as="sourcePoint" />
            <mxPoint x="460" y="810" as="targetPoint" />
          </mxGeometry>
        </mxCell>
        <mxCell id="Lsz9uFXEBw233Lw_fpnC-14" value="EDL TC Res.&lt;br&gt;[10016]" style="edgeLabel;html=1;align=center;verticalAlign=middle;resizable=0;points=[];" parent="Lsz9uFXEBw233Lw_fpnC-13" vertex="1" connectable="0">
          <mxGeometry x="0.1109" y="2" relative="1" as="geometry">
            <mxPoint x="-36" y="-6" as="offset" />
          </mxGeometry>
        </mxCell>
        <mxCell id="Lsz9uFXEBw233Lw_fpnC-15" value="" style="endArrow=classic;html=1;rounded=0;exitX=0.75;exitY=0;exitDx=0;exitDy=0;entryX=0.5;entryY=1;entryDx=0;entryDy=0;fillColor=#dae8fc;strokeColor=#6c8ebf;" parent="1" source="Lsz9uFXEBw233Lw_fpnC-10" target="Lsz9uFXEBw233Lw_fpnC-9" edge="1">
          <mxGeometry width="50" height="50" relative="1" as="geometry">
            <mxPoint x="410" y="880" as="sourcePoint" />
            <mxPoint x="460" y="830" as="targetPoint" />
          </mxGeometry>
        </mxCell>
        <mxCell id="Lsz9uFXEBw233Lw_fpnC-16" value="EDL TC Req.&lt;br&gt;[10025]" style="edgeLabel;html=1;align=center;verticalAlign=middle;resizable=0;points=[];" parent="Lsz9uFXEBw233Lw_fpnC-15" vertex="1" connectable="0">
          <mxGeometry x="0.4462" y="-2" relative="1" as="geometry">
            <mxPoint x="-36" y="14" as="offset" />
          </mxGeometry>
        </mxCell>
        <mxCell id="Lsz9uFXEBw233Lw_fpnC-17" value="" style="endArrow=classic;html=1;rounded=0;exitX=0.188;exitY=1.015;exitDx=0;exitDy=0;entryX=0.188;entryY=-0.002;entryDx=0;entryDy=0;fillColor=#dae8fc;strokeColor=#6c8ebf;exitPerimeter=0;entryPerimeter=0;" parent="1" source="Lsz9uFXEBw233Lw_fpnC-30" target="Lsz9uFXEBw233Lw_fpnC-31" edge="1">
          <mxGeometry width="50" height="50" relative="1" as="geometry">
            <mxPoint x="410" y="880" as="sourcePoint" />
            <mxPoint x="460" y="830" as="targetPoint" />
          </mxGeometry>
        </mxCell>
        <mxCell id="Lsz9uFXEBw233Lw_fpnC-18" value="UniClOGS TM&lt;br&gt;[10015]" style="edgeLabel;html=1;align=center;verticalAlign=middle;resizable=0;points=[];" parent="Lsz9uFXEBw233Lw_fpnC-17" vertex="1" connectable="0">
          <mxGeometry x="-0.3976" y="2" relative="1" as="geometry">
            <mxPoint x="-40" y="11" as="offset" />
          </mxGeometry>
        </mxCell>
        <mxCell id="Lsz9uFXEBw233Lw_fpnC-19" value="" style="edgeStyle=orthogonalEdgeStyle;rounded=0;orthogonalLoop=1;jettySize=auto;html=1;dashed=1;entryX=0.75;entryY=1;entryDx=0;entryDy=0;startArrow=classic;startFill=1;exitX=0.5;exitY=0;exitDx=0;exitDy=0;fillColor=#f8cecc;strokeColor=#b85450;" parent="1" source="Lsz9uFXEBw233Lw_fpnC-21" target="Lsz9uFXEBw233Lw_fpnC-31" edge="1">
          <mxGeometry relative="1" as="geometry" />
        </mxCell>
        <mxCell id="Lsz9uFXEBw233Lw_fpnC-35" value="Yamcs API&lt;br&gt;[8090]" style="edgeLabel;html=1;align=center;verticalAlign=middle;resizable=0;points=[];" parent="Lsz9uFXEBw233Lw_fpnC-19" vertex="1" connectable="0">
          <mxGeometry x="-0.086" relative="1" as="geometry">
            <mxPoint x="-40" y="-3" as="offset" />
          </mxGeometry>
        </mxCell>
        <mxCell id="Lsz9uFXEBw233Lw_fpnC-21" value="grafana" style="rounded=0;whiteSpace=wrap;html=1;" parent="1" vertex="1">
          <mxGeometry x="360" y="720" width="120" height="60" as="geometry" />
        </mxCell>
        <mxCell id="Lsz9uFXEBw233Lw_fpnC-22" value="" style="group" parent="1" vertex="1" connectable="0">
          <mxGeometry x="80" y="470" width="80" height="70" as="geometry" />
        </mxCell>
        <mxCell id="Lsz9uFXEBw233Lw_fpnC-23" value="Key:" style="group;fillColor=#f5f5f5;fontColor=#333333;strokeColor=#666666;container=0;" parent="Lsz9uFXEBw233Lw_fpnC-22" vertex="1" connectable="0">
          <mxGeometry width="80" height="70" as="geometry" />
        </mxCell>
        <mxCell id="Lsz9uFXEBw233Lw_fpnC-24" value="" style="endArrow=classic;html=1;rounded=0;fillColor=#dae8fc;strokeColor=#6c8ebf;" parent="Lsz9uFXEBw233Lw_fpnC-22" edge="1">
          <mxGeometry width="50" height="50" relative="1" as="geometry">
            <mxPoint x="30" y="30" as="sourcePoint" />
            <mxPoint x="70" y="30" as="targetPoint" />
          </mxGeometry>
        </mxCell>
        <mxCell id="Lsz9uFXEBw233Lw_fpnC-25" value="UDP" style="edgeLabel;html=1;align=center;verticalAlign=middle;resizable=0;points=[];fontColor=#7EA6E0;" parent="Lsz9uFXEBw233Lw_fpnC-24" vertex="1" connectable="0">
          <mxGeometry x="-0.45" relative="1" as="geometry">
            <mxPoint x="-21" as="offset" />
          </mxGeometry>
        </mxCell>
        <mxCell id="Lsz9uFXEBw233Lw_fpnC-26" value="" style="endArrow=classic;html=1;rounded=0;fillColor=#f8cecc;strokeColor=#b85450;" parent="Lsz9uFXEBw233Lw_fpnC-22" edge="1">
          <mxGeometry width="50" height="50" relative="1" as="geometry">
            <mxPoint x="30" y="49.83" as="sourcePoint" />
            <mxPoint x="70" y="49.83" as="targetPoint" />
          </mxGeometry>
        </mxCell>
        <mxCell id="Lsz9uFXEBw233Lw_fpnC-27" value="TCP" style="edgeLabel;html=1;align=center;verticalAlign=middle;resizable=0;points=[];fontColor=#EA6B66;" parent="Lsz9uFXEBw233Lw_fpnC-26" vertex="1" connectable="0">
          <mxGeometry x="-0.45" relative="1" as="geometry">
            <mxPoint x="-21" as="offset" />
          </mxGeometry>
        </mxCell>
        <mxCell id="Lsz9uFXEBw233Lw_fpnC-28" value="RC-Candidate ICD:" style="text;strokeColor=none;fillColor=none;html=1;fontSize=24;fontStyle=1;verticalAlign=middle;align=left;fontColor=#000000;" parent="1" vertex="1">
          <mxGeometry x="80" y="400" width="220" height="40" as="geometry" />
        </mxCell>
        <mxCell id="Lsz9uFXEBw233Lw_fpnC-29" value="v1.0.0" style="text;html=1;strokeColor=none;fillColor=none;align=left;verticalAlign=middle;whiteSpace=wrap;rounded=0;fontColor=#000000;" parent="1" vertex="1">
          <mxGeometry x="80" y="430" width="120" height="20" as="geometry" />
        </mxCell>
        <mxCell id="Lsz9uFXEBw233Lw_fpnC-30" value="uniclogs-sdr" style="rounded=0;whiteSpace=wrap;html=1;" parent="1" vertex="1">
          <mxGeometry x="180" y="470" width="320" height="60" as="geometry" />
        </mxCell>
        <mxCell id="Lsz9uFXEBw233Lw_fpnC-31" value="uniclogs-yamcs" style="rounded=0;whiteSpace=wrap;html=1;" parent="1" vertex="1">
          <mxGeometry x="180" y="600" width="320" height="60" as="geometry" />
        </mxCell>
        <mxCell id="Lsz9uFXEBw233Lw_fpnC-32" value="SatNOGS API" style="ellipse;shape=cloud;whiteSpace=wrap;html=1;fontColor=#000000;" parent="1" vertex="1">
          <mxGeometry x="200" y="710" width="120" height="80" as="geometry" />
        </mxCell>
        <mxCell id="Lsz9uFXEBw233Lw_fpnC-33" value="" style="endArrow=classic;html=1;rounded=0;fontColor=#000000;entryX=0.25;entryY=1;entryDx=0;entryDy=0;exitX=0.507;exitY=0.097;exitDx=0;exitDy=0;exitPerimeter=0;dashed=1;fillColor=#f8cecc;strokeColor=#b85450;" parent="1" source="Lsz9uFXEBw233Lw_fpnC-32" target="Lsz9uFXEBw233Lw_fpnC-31" edge="1">
          <mxGeometry width="50" height="50" relative="1" as="geometry">
            <mxPoint x="10" y="620" as="sourcePoint" />
            <mxPoint x="210" y="630" as="targetPoint" />
          </mxGeometry>
        </mxCell>
        <mxCell id="Lsz9uFXEBw233Lw_fpnC-34" value="SatNOGS TM&lt;br&gt;[10017]" style="edgeLabel;html=1;align=center;verticalAlign=middle;resizable=0;points=[];" parent="Lsz9uFXEBw233Lw_fpnC-33" vertex="1" connectable="0">
          <mxGeometry x="-0.4687" relative="1" as="geometry">
            <mxPoint x="-41" y="-12" as="offset" />
          </mxGeometry>
        </mxCell>
      </root>
    </mxGraphModel>
  </diagram>
</mxfile>
